<svg width="800" height="800" xmlns="http://www.w3.org/2000/svg"><rect width="800" height="800" fill="#000"/><circle cx="400" cy="400" r="42.857142857142854" 
                    fill="none" stroke="#00ff00" stroke-width="1" opacity="0.1"/><circle cx="400" cy="400" r="85.71428571428571" 
                    fill="none" stroke="#00ff00" stroke-width="1" opacity="0.1"/><circle cx="400" cy="400" r="128.57142857142856" 
                    fill="none" stroke="#00ff00" stroke-width="1" opacity="0.3"/><circle cx="400" cy="400" r="171.42857142857142" 
                    fill="none" stroke="#00ff00" stroke-width="1" opacity="0.3"/><circle cx="400" cy="400" r="214.28571428571428" 
                    fill="none" stroke="#00ff00" stroke-width="1" opacity="0.1"/><circle cx="400" cy="400" r="257.1428571428571" 
                    fill="none" stroke="#00ff00" stroke-width="1" opacity="0.1"/><circle cx="400" cy="400" r="300" 
                    fill="none" stroke="#00ff00" stroke-width="1" opacity="0.1"/><circle cx="490" cy="400" r="2" fill="hsl(280, 50%, 30%)" opacity="0.5"/><circle cx="489.9862925640752" cy="401.5707165793555" r="2" fill="hsl(280, 50%, 30%)" opacity="0.5"/><circle cx="489.9451744317186" cy="403.1409547032251" r="2" fill="hsl(280, 50%, 30%)" opacity="0.5"/><circle cx="489.87665812791164" cy="404.7102360618649" r="2" fill="hsl(280, 50%, 30%)" opacity="0.5"/><circle cx="489.78076452338416" cy="406.27808263697125" r="2" fill="hsl(280, 50%, 30%)" opacity="0.5"/><circle cx="489.65752282825713" cy="407.84401684728925" r="2" fill="hsl(280, 50%, 30%)" opacity="0.5"/><circle cx="489.5069705831446" cy="409.4075616940888" r="2" fill="hsl(280, 50%, 30%)" opacity="0.5"/><circle cx="489.32915364771895" cy="410.9682409064633" r="2" fill="hsl(280, 50%, 30%)" opacity="0.5"/><circle cx="489.12412618674136" cy="412.5255790864059" r="2" fill="hsl(280, 50%, 30%)" opacity="0.5"/><circle cx="488.8919506535624" cy="414.0791018536208" r="2" fill="hsl(280, 50%, 30%)" opacity="0.5"/><circle cx="488.6326977710987" cy="415.62833599002374" r="2" fill="hsl(280, 50%, 30%)" opacity="0.5"/><circle cx="488.34644651028975" cy="417.17280958388903" r="2" fill="hsl(280, 50%, 30%)" opacity="0.5"/><circle cx="488.0332840660425" cy="418.71205217359835" r="2" fill="hsl(280, 50%, 30%)" opacity="0.5"/><circle cx="487.6933058306712" cy="420.24559489094787" r="2" fill="hsl(280, 50%, 30%)" opacity="0.5"/><circle cx="487.32661536483965" cy="421.77297060397007" r="2" fill="hsl(280, 50%, 30%)" opacity="0.5"/><circle cx="486.93332436601617" cy="423.2937140592269" r="2" fill="hsl(280, 50%, 30%)" opacity="0.5"/><circle cx="486.51355263444873" cy="424.80736202352995" r="2" fill="hsl(280, 50%, 30%)" opacity="0.5"/><circle cx="486.06742803667316" cy="426.3134534250463" r="2" fill="hsl(280, 50%, 30%)" opacity="0.5"/><circle cx="485.5950864665638" cy="427.81152949374524" r="2" fill="hsl(280, 50%, 30%)" opacity="0.5"/><circle cx="485.09667180393853" cy="429.3011339011441" r="2" fill="hsl(280, 50%, 30%)" opacity="0.5"/><circle cx="484.57233587073176" cy="430.7818128993102" r="2" fill="hsl(280, 50%, 30%)" opacity="0.5"/><circle cx="484.02223838474816" cy="432.25311545907704" r="2" fill="hsl(280, 50%, 30%)" opacity="0.5"/><circle cx="483.44654691101084" cy="433.71459340743206" r="2" fill="hsl(280, 50%, 30%)" opacity="0.5"/><circle cx="482.84543681071966" cy="435.1658015640346" r="2" fill="hsl(280, 50%, 30%)" opacity="0.5"/><circle cx="482.21909118783407" cy="436.606297876822" r="2" fill="hsl(280, 50%, 30%)" opacity="0.5"/><circle cx="671.892336110995" cy="526.7854785222098" r="2" fill="hsl(280, 100%, 70%)" opacity="1"/><circle cx="480.89146416692506" cy="439.45340321101696" r="2" fill="hsl(280, 50%, 30%)" opacity="0.5"/><circle cx="480.1905871769531" cy="440.8591449765592" r="2" fill="hsl(280, 50%, 30%)" opacity="0.5"/><circle cx="479.4652833573034" cy="442.2524406507302" r="2" fill="hsl(280, 50%, 30%)" opacity="0.5"/><circle cx="478.7157736425456" cy="443.63286582217034" r="2" fill="hsl(280, 50%, 30%)" opacity="0.5"/><circle cx="477.9422863405995" cy="445" r="2" fill="hsl(280, 50%, 30%)" opacity="0.5"/><circle cx="477.1450570631901" cy="446.35342674190485" r="2" fill="hsl(280, 50%, 30%)" opacity="0.5"/><circle cx="609.8919037987155" cy="531.1550178977182" r="2" fill="hsl(280, 87.5%, 60%)" opacity="0.875"/><circle cx="475.4803511150882" cy="449.01751315135243" r="2" fill="hsl(280, 50%, 30%)" opacity="0.5"/><circle cx="474.61338152995376" cy="450.3273613123672" r="2" fill="hsl(280, 50%, 30%)" opacity="0.5"/><circle cx="473.7236839860093" cy="451.62187927159414" r="2" fill="hsl(280, 50%, 30%)" opacity="0.5"/><circle cx="472.8115294937453" cy="452.90067270632255" r="2" fill="hsl(280, 50%, 30%)" opacity="0.5"/><circle cx="471.8771959042564" cy="454.16335208368434" r="2" fill="hsl(280, 50%, 30%)" opacity="0.5"/><circle cx="470.920967824605" cy="455.40953277930925" r="2" fill="hsl(280, 50%, 30%)" opacity="0.5"/><circle cx="469.9431365311274" cy="456.63883519448535" r="2" fill="hsl(280, 50%, 30%)" opacity="0.5"/><circle cx="468.943999880708" cy="457.85088487178854" r="2" fill="hsl(280, 50%, 30%)" opacity="0.5"/><circle cx="467.9238622200495" cy="459.04531260914564" r="2" fill="hsl(280, 50%, 30%)" opacity="0.5"/><circle cx="466.8830342929655" cy="460.22175457229724" r="2" fill="hsl(280, 50%, 30%)" opacity="0.5"/><circle cx="465.82183314572535" cy="461.3798524056249" r="2" fill="hsl(280, 50%, 30%)" opacity="0.5"/><circle cx="464.7405820304786" cy="462.51925334130976" r="2" fill="hsl(280, 50%, 30%)" opacity="0.5"/><circle cx="463.6396103067893" cy="463.6396103067893" r="2" fill="hsl(280, 50%, 30%)" opacity="0.5"/><circle cx="462.51925334130976" cy="464.7405820304786" r="2" fill="hsl(280, 50%, 30%)" opacity="0.5"/><circle cx="461.3798524056249" cy="465.82183314572535" r="2" fill="hsl(280, 50%, 30%)" opacity="0.5"/><circle cx="460.22175457229724" cy="466.8830342929655" r="2" fill="hsl(280, 50%, 30%)" opacity="0.5"/><circle cx="459.04531260914564" cy="467.9238622200495" r="2" fill="hsl(280, 50%, 30%)" opacity="0.5"/><circle cx="457.85088487178854" cy="468.943999880708" r="2" fill="hsl(280, 50%, 30%)" opacity="0.5"/><circle cx="456.63883519448535" cy="469.9431365311274" r="2" fill="hsl(280, 50%, 30%)" opacity="0.5"/><circle cx="455.40953277930925" cy="470.920967824605" r="2" fill="hsl(280, 50%, 30%)" opacity="0.5"/><circle cx="454.16335208368434" cy="471.8771959042564" r="2" fill="hsl(280, 50%, 30%)" opacity="0.5"/><circle cx="452.90067270632255" cy="472.8115294937453" r="2" fill="hsl(280, 50%, 30%)" opacity="0.5"/><circle cx="451.62187927159414" cy="473.7236839860093" r="2" fill="hsl(280, 50%, 30%)" opacity="0.5"/><circle cx="450.3273613123672" cy="474.61338152995376" r="2" fill="hsl(280, 50%, 30%)" opacity="0.5"/><circle cx="449.01751315135243" cy="475.4803511150882" r="2" fill="hsl(280, 50%, 30%)" opacity="0.5"/><circle cx="447.6927337809884" cy="476.32432865407833" r="2" fill="hsl(280, 50%, 30%)" opacity="0.5"/><circle cx="527.4719235402384" cy="612.1489069237728" r="2" fill="hsl(280, 87.5%, 60%)" opacity="0.875"/><circle cx="445" cy="477.9422863405995" r="2" fill="hsl(280, 50%, 30%)" opacity="0.5"/><circle cx="443.63286582217034" cy="478.7157736425456" r="2" fill="hsl(280, 50%, 30%)" opacity="0.5"/><circle cx="442.2524406507302" cy="479.4652833573034" r="2" fill="hsl(280, 50%, 30%)" opacity="0.5"/><circle cx="440.8591449765592" cy="480.1905871769531" r="2" fill="hsl(280, 50%, 30%)" opacity="0.5"/><circle cx="508.4968588302967" cy="622.4515264590439" r="2" fill="hsl(280, 87.5%, 60%)" opacity="0.875"/><circle cx="438.03564355666293" cy="481.5677008332985" r="2" fill="hsl(280, 50%, 30%)" opacity="0.5"/><circle cx="436.606297876822" cy="482.21909118783407" r="2" fill="hsl(280, 50%, 30%)" opacity="0.5"/><circle cx="435.16580156403467" cy="482.8454368107196" r="2" fill="hsl(280, 50%, 30%)" opacity="0.5"/><circle cx="492.7151318704382" cy="629.4780040052799" r="2" fill="hsl(280, 87.5%, 60%)" opacity="0.875"/><circle cx="432.25311545907704" cy="484.02223838474816" r="2" fill="hsl(280, 50%, 30%)" opacity="0.5"/><circle cx="430.7818128993102" cy="484.57233587073176" r="2" fill="hsl(280, 50%, 30%)" opacity="0.5"/><circle cx="429.3011339011441" cy="485.09667180393853" r="2" fill="hsl(280, 50%, 30%)" opacity="0.5"/><circle cx="427.8115294937453" cy="485.5950864665638" r="2" fill="hsl(280, 50%, 30%)" opacity="0.5"/><circle cx="426.3134534250463" cy="486.06742803667316" r="2" fill="hsl(280, 50%, 30%)" opacity="0.5"/><circle cx="424.80736202352995" cy="486.51355263444873" r="2" fill="hsl(280, 50%, 30%)" opacity="0.5"/><circle cx="423.2937140592269" cy="486.93332436601617" r="2" fill="hsl(280, 50%, 30%)" opacity="0.5"/><circle cx="421.7729706039701" cy="487.32661536483965" r="2" fill="hsl(280, 50%, 30%)" opacity="0.5"/><circle cx="420.2455948909478" cy="487.6933058306712" r="2" fill="hsl(280, 50%, 30%)" opacity="0.5"/><circle cx="418.71205217359835" cy="488.0332840660425" r="2" fill="hsl(280, 50%, 30%)" opacity="0.5"/><circle cx="417.17280958388903" cy="488.34644651028975" r="2" fill="hsl(280, 50%, 30%)" opacity="0.5"/><circle cx="415.62833599002374" cy="488.6326977710987" r="2" fill="hsl(280, 50%, 30%)" opacity="0.5"/><circle cx="414.0791018536208" cy="488.8919506535624" r="2" fill="hsl(280, 50%, 30%)" opacity="0.5"/><circle cx="412.5255790864059" cy="489.1241261867413" r="2" fill="hsl(280, 50%, 30%)" opacity="0.5"/><circle cx="410.9682409064633" cy="489.32915364771895" r="2" fill="hsl(280, 50%, 30%)" opacity="0.5"/><circle cx="409.4075616940888" cy="489.5069705831446" r="2" fill="hsl(280, 50%, 30%)" opacity="0.5"/><circle cx="407.84401684728925" cy="489.65752282825713" r="2" fill="hsl(280, 50%, 30%)" opacity="0.5"/><circle cx="406.2780826369713" cy="489.78076452338416" r="2" fill="hsl(280, 50%, 30%)" opacity="0.5"/><circle cx="404.710236061865" cy="489.87665812791164" r="2" fill="hsl(280, 50%, 30%)" opacity="0.5"/><circle cx="403.1409547032251" cy="489.9451744317186" r="2" fill="hsl(280, 50%, 30%)" opacity="0.5"/><circle cx="401.5707165793555" cy="489.9862925640752" r="2" fill="hsl(280, 50%, 30%)" opacity="0.5"/><circle cx="400" cy="490" r="2" fill="hsl(280, 50%, 30%)" opacity="0.5"/><circle cx="398.4292834206445" cy="489.9862925640752" r="2" fill="hsl(280, 50%, 30%)" opacity="0.5"/><circle cx="396.8590452967749" cy="489.9451744317186" r="2" fill="hsl(280, 50%, 30%)" opacity="0.5"/><circle cx="395.2897639381351" cy="489.87665812791164" r="2" fill="hsl(280, 50%, 30%)" opacity="0.5"/><circle cx="393.7219173630287" cy="489.78076452338416" r="2" fill="hsl(280, 50%, 30%)" opacity="0.5"/><circle cx="392.15598315271075" cy="489.65752282825713" r="2" fill="hsl(280, 50%, 30%)" opacity="0.5"/><circle cx="390.5924383059112" cy="489.5069705831446" r="2" fill="hsl(280, 50%, 30%)" opacity="0.5"/><circle cx="389.0317590935367" cy="489.32915364771895" r="2" fill="hsl(280, 50%, 30%)" opacity="0.5"/><circle cx="387.47442091359414" cy="489.12412618674136" r="2" fill="hsl(280, 50%, 30%)" opacity="0.5"/><circle cx="385.9208981463792" cy="488.8919506535624" r="2" fill="hsl(280, 50%, 30%)" opacity="0.5"/><circle cx="384.37166400997626" cy="488.6326977710987" r="2" fill="hsl(280, 50%, 30%)" opacity="0.5"/><circle cx="382.82719041611097" cy="488.34644651028975" r="2" fill="hsl(280, 50%, 30%)" opacity="0.5"/><circle cx="381.2879478264017" cy="488.0332840660425" r="2" fill="hsl(280, 50%, 30%)" opacity="0.5"/><circle cx="379.7544051090522" cy="487.6933058306712" r="2" fill="hsl(280, 50%, 30%)" opacity="0.5"/><circle cx="378.2270293960299" cy="487.32661536483965" r="2" fill="hsl(280, 50%, 30%)" opacity="0.5"/><circle cx="376.7062859407731" cy="486.93332436601617" r="2" fill="hsl(280, 50%, 30%)" opacity="0.5"/><circle cx="375.1926379764701" cy="486.51355263444873" r="2" fill="hsl(280, 50%, 30%)" opacity="0.5"/><circle cx="373.6865465749537" cy="486.06742803667316" r="2" fill="hsl(280, 50%, 30%)" opacity="0.5"/><circle cx="372.18847050625476" cy="485.5950864665638" r="2" fill="hsl(280, 50%, 30%)" opacity="0.5"/><circle cx="370.69886609885594" cy="485.09667180393853" r="2" fill="hsl(280, 50%, 30%)" opacity="0.5"/><circle cx="369.2181871006898" cy="484.57233587073176" r="2" fill="hsl(280, 50%, 30%)" opacity="0.5"/><circle cx="367.74688454092296" cy="484.02223838474816" r="2" fill="hsl(280, 50%, 30%)" opacity="0.5"/><circle cx="366.28540659256794" cy="483.44654691101084" r="2" fill="hsl(280, 50%, 30%)" opacity="0.5"/><circle cx="364.8341984359654" cy="482.84543681071966" r="2" fill="hsl(280, 50%, 30%)" opacity="0.5"/><circle cx="363.393702123178" cy="482.21909118783407" r="2" fill="hsl(280, 50%, 30%)" opacity="0.5"/><circle cx="361.96435644333707" cy="481.5677008332985" r="2" fill="hsl(280, 50%, 30%)" opacity="0.5"/><circle cx="360.54659678898304" cy="480.891464166925" r="2" fill="hsl(280, 50%, 30%)" opacity="0.5"/><circle cx="359.1408550234408" cy="480.1905871769531" r="2" fill="hsl(280, 50%, 30%)" opacity="0.5"/><circle cx="357.74755934926986" cy="479.4652833573034" r="2" fill="hsl(280, 50%, 30%)" opacity="0.5"/><circle cx="356.36713417782966" cy="478.7157736425456" r="2" fill="hsl(280, 50%, 30%)" opacity="0.5"/><circle cx="355" cy="477.9422863405995" r="2" fill="hsl(280, 50%, 30%)" opacity="0.5"/><circle cx="353.64657325809515" cy="477.1450570631901" r="2" fill="hsl(280, 50%, 30%)" opacity="0.5"/><circle cx="352.3072662190116" cy="476.32432865407833" r="2" fill="hsl(280, 50%, 30%)" opacity="0.5"/><circle cx="350.98248684864757" cy="475.4803511150882" r="2" fill="hsl(280, 50%, 30%)" opacity="0.5"/><circle cx="349.6726386876328" cy="474.61338152995376" r="2" fill="hsl(280, 50%, 30%)" opacity="0.5"/><circle cx="348.37812072840586" cy="473.7236839860093" r="2" fill="hsl(280, 50%, 30%)" opacity="0.5"/><circle cx="347.09932729367745" cy="472.8115294937453" r="2" fill="hsl(280, 50%, 30%)" opacity="0.5"/><circle cx="345.83664791631566" cy="471.8771959042563" r="2" fill="hsl(280, 50%, 30%)" opacity="0.5"/><circle cx="344.59046722069075" cy="470.920967824605" r="2" fill="hsl(280, 50%, 30%)" opacity="0.5"/><circle cx="343.36116480551465" cy="469.9431365311274" r="2" fill="hsl(280, 50%, 30%)" opacity="0.5"/><circle cx="342.14911512821146" cy="468.943999880708" r="2" fill="hsl(280, 50%, 30%)" opacity="0.5"/><circle cx="340.9546873908543" cy="467.92386222004944" r="2" fill="hsl(280, 50%, 30%)" opacity="0.5"/><circle cx="339.77824542770276" cy="466.8830342929655" r="2" fill="hsl(280, 50%, 30%)" opacity="0.5"/><circle cx="338.62014759437517" cy="465.82183314572535" r="2" fill="hsl(280, 50%, 30%)" opacity="0.5"/><circle cx="337.48074665869024" cy="464.7405820304786" r="2" fill="hsl(280, 50%, 30%)" opacity="0.5"/><circle cx="336.3603896932107" cy="463.6396103067893" r="2" fill="hsl(280, 50%, 30%)" opacity="0.5"/><circle cx="335.2594179695214" cy="462.51925334130976" r="2" fill="hsl(280, 50%, 30%)" opacity="0.5"/><circle cx="334.17816685427465" cy="461.3798524056249" r="2" fill="hsl(280, 50%, 30%)" opacity="0.5"/><circle cx="333.1169657070345" cy="460.22175457229724" r="2" fill="hsl(280, 50%, 30%)" opacity="0.5"/><circle cx="332.0761377799505" cy="459.04531260914564" r="2" fill="hsl(280, 50%, 30%)" opacity="0.5"/><circle cx="331.056000119292" cy="457.85088487178854" r="2" fill="hsl(280, 50%, 30%)" opacity="0.5"/><circle cx="330.0568634688726" cy="456.6388351944854" r="2" fill="hsl(280, 50%, 30%)" opacity="0.5"/><circle cx="329.079032175395" cy="455.40953277930925" r="2" fill="hsl(280, 50%, 30%)" opacity="0.5"/><circle cx="328.1228040957436" cy="454.16335208368434" r="2" fill="hsl(280, 50%, 30%)" opacity="0.5"/><circle cx="327.18847050625476" cy="452.9006727063226" r="2" fill="hsl(280, 50%, 30%)" opacity="0.5"/><circle cx="326.27631601399077" cy="451.6218792715942" r="2" fill="hsl(280, 50%, 30%)" opacity="0.5"/><circle cx="325.38661847004624" cy="450.3273613123672" r="2" fill="hsl(280, 50%, 30%)" opacity="0.5"/><circle cx="324.5196488849118" cy="449.01751315135243" r="2" fill="hsl(280, 50%, 30%)" opacity="0.5"/><circle cx="323.67567134592167" cy="447.6927337809884" r="2" fill="hsl(280, 50%, 30%)" opacity="0.5"/><circle cx="322.8549429368099" cy="446.3534267419049" r="2" fill="hsl(280, 50%, 30%)" opacity="0.5"/><circle cx="322.0577136594005" cy="445" r="2" fill="hsl(280, 50%, 30%)" opacity="0.5"/><circle cx="321.2842263574544" cy="443.63286582217034" r="2" fill="hsl(280, 50%, 30%)" opacity="0.5"/><circle cx="320.5347166426966" cy="442.2524406507302" r="2" fill="hsl(280, 50%, 30%)" opacity="0.5"/><circle cx="319.8094128230469" cy="440.8591449765592" r="2" fill="hsl(280, 50%, 30%)" opacity="0.5"/><circle cx="319.10853583307494" cy="439.45340321101696" r="2" fill="hsl(280, 50%, 30%)" opacity="0.5"/><circle cx="318.4322991667015" cy="438.03564355666293" r="2" fill="hsl(280, 50%, 30%)" opacity="0.5"/><circle cx="317.78090881216593" cy="436.60629787682205" r="2" fill="hsl(280, 50%, 30%)" opacity="0.5"/><circle cx="317.1545631892804" cy="435.16580156403467" r="2" fill="hsl(280, 50%, 30%)" opacity="0.5"/><circle cx="316.55345308898916" cy="433.7145934074321" r="2" fill="hsl(280, 50%, 30%)" opacity="0.5"/><circle cx="315.97776161525184" cy="432.25311545907704" r="2" fill="hsl(280, 50%, 30%)" opacity="0.5"/><circle cx="315.42766412926824" cy="430.7818128993102" r="2" fill="hsl(280, 50%, 30%)" opacity="0.5"/><circle cx="314.90332819606147" cy="429.3011339011441" r="2" fill="hsl(280, 50%, 30%)" opacity="0.5"/><circle cx="314.4049135334362" cy="427.8115294937453" r="2" fill="hsl(280, 50%, 30%)" opacity="0.5"/><circle cx="313.93257196332684" cy="426.3134534250463" r="2" fill="hsl(280, 50%, 30%)" opacity="0.5"/><circle cx="313.4864473655513" cy="424.80736202352995" r="2" fill="hsl(280, 50%, 30%)" opacity="0.5"/><circle cx="313.0666756339839" cy="423.2937140592269" r="2" fill="hsl(280, 50%, 30%)" opacity="0.5"/><circle cx="312.67338463516035" cy="421.77297060397007" r="2" fill="hsl(280, 50%, 30%)" opacity="0.5"/><circle cx="312.3066941693288" cy="420.2455948909478" r="2" fill="hsl(280, 50%, 30%)" opacity="0.5"/><circle cx="311.9667159339575" cy="418.71205217359835" r="2" fill="hsl(280, 50%, 30%)" opacity="0.5"/><circle cx="311.65355348971025" cy="417.17280958388903" r="2" fill="hsl(280, 50%, 30%)" opacity="0.5"/><circle cx="311.3673022289013" cy="415.62833599002374" r="2" fill="hsl(280, 50%, 30%)" opacity="0.5"/><circle cx="311.1080493464376" cy="414.0791018536208" r="2" fill="hsl(280, 50%, 30%)" opacity="0.5"/><circle cx="310.8758738132587" cy="412.5255790864059" r="2" fill="hsl(280, 50%, 30%)" opacity="0.5"/><circle cx="310.67084635228105" cy="410.9682409064633" r="2" fill="hsl(280, 50%, 30%)" opacity="0.5"/><circle cx="310.4930294168554" cy="409.4075616940888" r="2" fill="hsl(280, 50%, 30%)" opacity="0.5"/><circle cx="310.34247717174287" cy="407.84401684728925" r="2" fill="hsl(280, 50%, 30%)" opacity="0.5"/><circle cx="310.21923547661584" cy="406.2780826369713" r="2" fill="hsl(280, 50%, 30%)" opacity="0.5"/><circle cx="310.12334187208836" cy="404.7102360618649" r="2" fill="hsl(280, 50%, 30%)" opacity="0.5"/><circle cx="310.0548255682814" cy="403.1409547032251" r="2" fill="hsl(280, 50%, 30%)" opacity="0.5"/><circle cx="310.0137074359248" cy="401.5707165793555" r="2" fill="hsl(280, 50%, 30%)" opacity="0.5"/><circle cx="310" cy="400" r="2" fill="hsl(280, 50%, 30%)" opacity="0.5"/><circle cx="310.0137074359248" cy="398.42928342064454" r="2" fill="hsl(280, 50%, 30%)" opacity="0.5"/><circle cx="310.0548255682814" cy="396.8590452967749" r="2" fill="hsl(280, 50%, 30%)" opacity="0.5"/><circle cx="310.12334187208836" cy="395.2897639381351" r="2" fill="hsl(280, 50%, 30%)" opacity="0.5"/><circle cx="310.21923547661584" cy="393.72191736302875" r="2" fill="hsl(280, 50%, 30%)" opacity="0.5"/><circle cx="310.34247717174287" cy="392.1559831527108" r="2" fill="hsl(280, 50%, 30%)" opacity="0.5"/><circle cx="310.4930294168554" cy="390.59243830591123" r="2" fill="hsl(280, 50%, 30%)" opacity="0.5"/><circle cx="310.67084635228105" cy="389.0317590935367" r="2" fill="hsl(280, 50%, 30%)" opacity="0.5"/><circle cx="310.8758738132587" cy="387.4744209135941" r="2" fill="hsl(280, 50%, 30%)" opacity="0.5"/><circle cx="311.1080493464376" cy="385.9208981463792" r="2" fill="hsl(280, 50%, 30%)" opacity="0.5"/><circle cx="311.3673022289013" cy="384.37166400997626" r="2" fill="hsl(280, 50%, 30%)" opacity="0.5"/><circle cx="311.65355348971025" cy="382.82719041611097" r="2" fill="hsl(280, 50%, 30%)" opacity="0.5"/><circle cx="311.9667159339575" cy="381.2879478264017" r="2" fill="hsl(280, 50%, 30%)" opacity="0.5"/><circle cx="312.3066941693288" cy="379.75440510905213" r="2" fill="hsl(280, 50%, 30%)" opacity="0.5"/><circle cx="312.6733846351603" cy="378.22702939602993" r="2" fill="hsl(280, 50%, 30%)" opacity="0.5"/><circle cx="313.06667563398383" cy="376.70628594077317" r="2" fill="hsl(280, 50%, 30%)" opacity="0.5"/><circle cx="313.48644736555127" cy="375.1926379764701" r="2" fill="hsl(280, 50%, 30%)" opacity="0.5"/><circle cx="313.93257196332684" cy="373.68654657495375" r="2" fill="hsl(280, 50%, 30%)" opacity="0.5"/><circle cx="314.4049135334362" cy="372.1884705062547" r="2" fill="hsl(280, 50%, 30%)" opacity="0.5"/><circle cx="314.90332819606147" cy="370.6988660988559" r="2" fill="hsl(280, 50%, 30%)" opacity="0.5"/><circle cx="315.42766412926824" cy="369.2181871006898" r="2" fill="hsl(280, 50%, 30%)" opacity="0.5"/><circle cx="315.97776161525184" cy="367.74688454092296" r="2" fill="hsl(280, 50%, 30%)" opacity="0.5"/><circle cx="316.55345308898916" cy="366.28540659256794" r="2" fill="hsl(280, 50%, 30%)" opacity="0.5"/><circle cx="317.15456318928034" cy="364.8341984359654" r="2" fill="hsl(280, 50%, 30%)" opacity="0.5"/><circle cx="317.7809088121659" cy="363.393702123178" r="2" fill="hsl(280, 50%, 30%)" opacity="0.5"/><circle cx="175.68882270842911" cy="295.40198021917695" r="2" fill="hsl(280, 87.5%, 60%)" opacity="0.875"/><circle cx="319.10853583307494" cy="360.54659678898304" r="2" fill="hsl(280, 50%, 30%)" opacity="0.5"/><circle cx="319.80941282304684" cy="359.14085502344085" r="2" fill="hsl(280, 50%, 30%)" opacity="0.5"/><circle cx="320.5347166426966" cy="357.7475593492698" r="2" fill="hsl(280, 50%, 30%)" opacity="0.5"/><circle cx="321.2842263574544" cy="356.36713417782966" r="2" fill="hsl(280, 50%, 30%)" opacity="0.5"/><circle cx="185.65871256335146" cy="276.25" r="2" fill="hsl(280, 87.5%, 60%)" opacity="0.875"/><circle cx="322.8549429368099" cy="353.64657325809515" r="2" fill="hsl(280, 50%, 30%)" opacity="0.5"/><circle cx="323.67567134592167" cy="352.3072662190116" r="2" fill="hsl(280, 50%, 30%)" opacity="0.5"/><circle cx="324.5196488849118" cy="350.98248684864757" r="2" fill="hsl(280, 50%, 30%)" opacity="0.5"/><circle cx="325.38661847004624" cy="349.6726386876328" r="2" fill="hsl(280, 50%, 30%)" opacity="0.5"/><circle cx="326.2763160139907" cy="348.37812072840586" r="2" fill="hsl(280, 50%, 30%)" opacity="0.5"/><circle cx="327.1884705062547" cy="347.09932729367745" r="2" fill="hsl(280, 50%, 30%)" opacity="0.5"/><circle cx="328.1228040957436" cy="345.83664791631566" r="2" fill="hsl(280, 50%, 30%)" opacity="0.5"/><circle cx="329.079032175395" cy="344.5904672206908" r="2" fill="hsl(280, 50%, 30%)" opacity="0.5"/><circle cx="330.0568634688726" cy="343.3611648055146" r="2" fill="hsl(280, 50%, 30%)" opacity="0.5"/><circle cx="331.056000119292" cy="342.14911512821146" r="2" fill="hsl(280, 50%, 30%)" opacity="0.5"/><circle cx="332.0761377799505" cy="340.95468739085436" r="2" fill="hsl(280, 50%, 30%)" opacity="0.5"/><circle cx="333.1169657070345" cy="339.77824542770276" r="2" fill="hsl(280, 50%, 30%)" opacity="0.5"/><circle cx="334.17816685427465" cy="338.62014759437517" r="2" fill="hsl(280, 50%, 30%)" opacity="0.5"/><circle cx="335.2594179695214" cy="337.48074665869024" r="2" fill="hsl(280, 50%, 30%)" opacity="0.5"/><circle cx="336.3603896932107" cy="336.3603896932107" r="2" fill="hsl(280, 50%, 30%)" opacity="0.5"/><circle cx="337.48074665869024" cy="335.25941796952145" r="2" fill="hsl(280, 50%, 30%)" opacity="0.5"/><circle cx="338.6201475943751" cy="334.1781668542747" r="2" fill="hsl(280, 50%, 30%)" opacity="0.5"/><circle cx="339.77824542770276" cy="333.1169657070345" r="2" fill="hsl(280, 50%, 30%)" opacity="0.5"/><circle cx="340.9546873908543" cy="332.07613777995056" r="2" fill="hsl(280, 50%, 30%)" opacity="0.5"/><circle cx="342.14911512821146" cy="331.056000119292" r="2" fill="hsl(280, 50%, 30%)" opacity="0.5"/><circle cx="343.36116480551465" cy="330.0568634688726" r="2" fill="hsl(280, 50%, 30%)" opacity="0.5"/><circle cx="344.59046722069075" cy="329.079032175395" r="2" fill="hsl(280, 50%, 30%)" opacity="0.5"/><circle cx="345.83664791631566" cy="328.1228040957436" r="2" fill="hsl(280, 50%, 30%)" opacity="0.5"/><circle cx="347.0993272936774" cy="327.18847050625476" r="2" fill="hsl(280, 50%, 30%)" opacity="0.5"/><circle cx="348.3781207284058" cy="326.27631601399077" r="2" fill="hsl(280, 50%, 30%)" opacity="0.5"/><circle cx="349.67263868763274" cy="325.3866184700463" r="2" fill="hsl(280, 50%, 30%)" opacity="0.5"/><circle cx="350.98248684864757" cy="324.5196488849118" r="2" fill="hsl(280, 50%, 30%)" opacity="0.5"/><circle cx="352.3072662190116" cy="323.67567134592167" r="2" fill="hsl(280, 50%, 30%)" opacity="0.5"/><circle cx="353.6465732580951" cy="322.8549429368099" r="2" fill="hsl(280, 50%, 30%)" opacity="0.5"/><circle cx="354.99999999999994" cy="322.0577136594005" r="2" fill="hsl(280, 50%, 30%)" opacity="0.5"/><circle cx="356.3671341778297" cy="321.2842263574544" r="2" fill="hsl(280, 50%, 30%)" opacity="0.5"/><circle cx="357.74755934926986" cy="320.5347166426966" r="2" fill="hsl(280, 50%, 30%)" opacity="0.5"/><circle cx="359.1408550234408" cy="319.8094128230469" r="2" fill="hsl(280, 50%, 30%)" opacity="0.5"/><circle cx="360.546596788983" cy="319.108535833075" r="2" fill="hsl(280, 50%, 30%)" opacity="0.5"/><circle cx="361.964356443337" cy="318.4322991667015" r="2" fill="hsl(280, 50%, 30%)" opacity="0.5"/><circle cx="363.393702123178" cy="317.78090881216593" r="2" fill="hsl(280, 50%, 30%)" opacity="0.5"/><circle cx="364.83419843596533" cy="317.1545631892804" r="2" fill="hsl(280, 50%, 30%)" opacity="0.5"/><circle cx="366.2854065925679" cy="316.55345308898916" r="2" fill="hsl(280, 50%, 30%)" opacity="0.5"/><circle cx="367.7468845409229" cy="315.97776161525184" r="2" fill="hsl(280, 50%, 30%)" opacity="0.5"/><circle cx="369.21818710068976" cy="315.42766412926824" r="2" fill="hsl(280, 50%, 30%)" opacity="0.5"/><circle cx="370.6988660988559" cy="314.90332819606147" r="2" fill="hsl(280, 50%, 30%)" opacity="0.5"/><circle cx="372.1884705062547" cy="314.4049135334362" r="2" fill="hsl(280, 50%, 30%)" opacity="0.5"/><circle cx="373.68654657495364" cy="313.93257196332684" r="2" fill="hsl(280, 50%, 30%)" opacity="0.5"/><circle cx="375.1926379764701" cy="313.48644736555127" r="2" fill="hsl(280, 50%, 30%)" opacity="0.5"/><circle cx="376.7062859407731" cy="313.06667563398383" r="2" fill="hsl(280, 50%, 30%)" opacity="0.5"/><circle cx="378.2270293960299" cy="312.67338463516035" r="2" fill="hsl(280, 50%, 30%)" opacity="0.5"/><circle cx="379.75440510905213" cy="312.3066941693288" r="2" fill="hsl(280, 50%, 30%)" opacity="0.5"/><circle cx="381.2879478264016" cy="311.9667159339575" r="2" fill="hsl(280, 50%, 30%)" opacity="0.5"/><circle cx="352.774773644305" cy="157.04727209670318" r="2" fill="hsl(280, 87.5%, 60%)" opacity="0.875"/><circle cx="384.37166400997626" cy="311.3673022289013" r="2" fill="hsl(280, 50%, 30%)" opacity="0.5"/><circle cx="385.9208981463792" cy="311.1080493464376" r="2" fill="hsl(280, 50%, 30%)" opacity="0.5"/><circle cx="387.47442091359414" cy="310.87587381325864" r="2" fill="hsl(280, 50%, 30%)" opacity="0.5"/><circle cx="389.0317590935368" cy="310.67084635228105" r="2" fill="hsl(280, 50%, 30%)" opacity="0.5"/><circle cx="390.5924383059112" cy="310.4930294168554" r="2" fill="hsl(280, 50%, 30%)" opacity="0.5"/><circle cx="392.15598315271075" cy="310.34247717174287" r="2" fill="hsl(280, 50%, 30%)" opacity="0.5"/><circle cx="393.7219173630287" cy="310.21923547661584" r="2" fill="hsl(280, 50%, 30%)" opacity="0.5"/><circle cx="395.289763938135" cy="310.12334187208836" r="2" fill="hsl(280, 50%, 30%)" opacity="0.5"/><circle cx="396.85904529677487" cy="310.0548255682814" r="2" fill="hsl(280, 50%, 30%)" opacity="0.5"/><circle cx="398.4292834206445" cy="310.0137074359248" r="2" fill="hsl(280, 50%, 30%)" opacity="0.5"/><circle cx="400" cy="310" r="2" fill="hsl(280, 50%, 30%)" opacity="0.5"/><circle cx="401.57071657935546" cy="310.0137074359248" r="2" fill="hsl(280, 50%, 30%)" opacity="0.5"/><circle cx="403.14095470322513" cy="310.0548255682814" r="2" fill="hsl(280, 50%, 30%)" opacity="0.5"/><circle cx="404.710236061865" cy="310.12334187208836" r="2" fill="hsl(280, 50%, 30%)" opacity="0.5"/><circle cx="406.27808263697125" cy="310.21923547661584" r="2" fill="hsl(280, 50%, 30%)" opacity="0.5"/><circle cx="407.8440168472892" cy="310.34247717174287" r="2" fill="hsl(280, 50%, 30%)" opacity="0.5"/><circle cx="409.40756169408877" cy="310.4930294168554" r="2" fill="hsl(280, 50%, 30%)" opacity="0.5"/><circle cx="410.9682409064633" cy="310.67084635228105" r="2" fill="hsl(280, 50%, 30%)" opacity="0.5"/><circle cx="412.5255790864059" cy="310.87587381325864" r="2" fill="hsl(280, 50%, 30%)" opacity="0.5"/><circle cx="414.0791018536208" cy="311.1080493464376" r="2" fill="hsl(280, 50%, 30%)" opacity="0.5"/><circle cx="415.6283359900237" cy="311.3673022289013" r="2" fill="hsl(280, 50%, 30%)" opacity="0.5"/><circle cx="417.172809583889" cy="311.65355348971025" r="2" fill="hsl(280, 50%, 30%)" opacity="0.5"/><circle cx="418.7120521735983" cy="311.96671593395746" r="2" fill="hsl(280, 50%, 30%)" opacity="0.5"/><circle cx="420.2455948909478" cy="312.3066941693288" r="2" fill="hsl(280, 50%, 30%)" opacity="0.5"/><circle cx="421.77297060397007" cy="312.6733846351603" r="2" fill="hsl(280, 50%, 30%)" opacity="0.5"/><circle cx="423.2937140592269" cy="313.0666756339839" r="2" fill="hsl(280, 50%, 30%)" opacity="0.5"/><circle cx="424.80736202352995" cy="313.4864473655513" r="2" fill="hsl(280, 50%, 30%)" opacity="0.5"/><circle cx="426.3134534250463" cy="313.93257196332684" r="2" fill="hsl(280, 50%, 30%)" opacity="0.5"/><circle cx="427.81152949374524" cy="314.4049135334362" r="2" fill="hsl(280, 50%, 30%)" opacity="0.5"/><circle cx="429.30113390114406" cy="314.90332819606147" r="2" fill="hsl(280, 50%, 30%)" opacity="0.5"/><circle cx="430.7818128993101" cy="315.42766412926824" r="2" fill="hsl(280, 50%, 30%)" opacity="0.5"/><circle cx="432.253115459077" cy="315.9777616152518" r="2" fill="hsl(280, 50%, 30%)" opacity="0.5"/><circle cx="433.71459340743206" cy="316.55345308898916" r="2" fill="hsl(280, 50%, 30%)" opacity="0.5"/><circle cx="435.1658015640346" cy="317.15456318928034" r="2" fill="hsl(280, 50%, 30%)" opacity="0.5"/><circle cx="436.60629787682205" cy="317.78090881216593" r="2" fill="hsl(280, 50%, 30%)" opacity="0.5"/><circle cx="438.035643556663" cy="318.4322991667015" r="2" fill="hsl(280, 50%, 30%)" opacity="0.5"/><circle cx="439.45340321101696" cy="319.10853583307494" r="2" fill="hsl(280, 50%, 30%)" opacity="0.5"/><circle cx="440.8591449765592" cy="319.8094128230469" r="2" fill="hsl(280, 50%, 30%)" opacity="0.5"/><circle cx="442.25244065073014" cy="320.5347166426966" r="2" fill="hsl(280, 50%, 30%)" opacity="0.5"/><circle cx="443.6328658221703" cy="321.2842263574544" r="2" fill="hsl(280, 50%, 30%)" opacity="0.5"/><circle cx="445" cy="322.0577136594005" r="2" fill="hsl(280, 50%, 30%)" opacity="0.5"/><circle cx="446.35342674190485" cy="322.8549429368099" r="2" fill="hsl(280, 50%, 30%)" opacity="0.5"/><circle cx="447.6927337809884" cy="323.67567134592167" r="2" fill="hsl(280, 50%, 30%)" opacity="0.5"/><circle cx="449.0175131513524" cy="324.5196488849118" r="2" fill="hsl(280, 50%, 30%)" opacity="0.5"/><circle cx="450.32736131236715" cy="325.3866184700462" r="2" fill="hsl(280, 50%, 30%)" opacity="0.5"/><circle cx="451.62187927159414" cy="326.2763160139907" r="2" fill="hsl(280, 50%, 30%)" opacity="0.5"/><circle cx="545.476849942387" cy="199.7682938922005" r="2" fill="hsl(280, 87.5%, 60%)" opacity="0.875"/><circle cx="454.16335208368434" cy="328.1228040957436" r="2" fill="hsl(280, 50%, 30%)" opacity="0.5"/><circle cx="455.40953277930925" cy="329.079032175395" r="2" fill="hsl(280, 50%, 30%)" opacity="0.5"/><circle cx="456.63883519448535" cy="330.0568634688726" r="2" fill="hsl(280, 50%, 30%)" opacity="0.5"/><circle cx="457.85088487178854" cy="331.056000119292" r="2" fill="hsl(280, 50%, 30%)" opacity="0.5"/><circle cx="459.04531260914564" cy="332.0761377799505" r="2" fill="hsl(280, 50%, 30%)" opacity="0.5"/><circle cx="460.2217545722972" cy="333.11696570703447" r="2" fill="hsl(280, 50%, 30%)" opacity="0.5"/><circle cx="461.37985240562483" cy="334.1781668542746" r="2" fill="hsl(280, 50%, 30%)" opacity="0.5"/><circle cx="462.5192533413097" cy="335.25941796952134" r="2" fill="hsl(280, 50%, 30%)" opacity="0.5"/><circle cx="463.6396103067893" cy="336.3603896932107" r="2" fill="hsl(280, 50%, 30%)" opacity="0.5"/><circle cx="464.74058203047855" cy="337.48074665869024" r="2" fill="hsl(280, 50%, 30%)" opacity="0.5"/><circle cx="465.82183314572535" cy="338.62014759437517" r="2" fill="hsl(280, 50%, 30%)" opacity="0.5"/><circle cx="466.8830342929655" cy="339.77824542770276" r="2" fill="hsl(280, 50%, 30%)" opacity="0.5"/><circle cx="467.9238622200495" cy="340.95468739085436" r="2" fill="hsl(280, 50%, 30%)" opacity="0.5"/><circle cx="468.943999880708" cy="342.1491151282114" r="2" fill="hsl(280, 50%, 30%)" opacity="0.5"/><circle cx="469.9431365311274" cy="343.3611648055146" r="2" fill="hsl(280, 50%, 30%)" opacity="0.5"/><circle cx="470.92096782460493" cy="344.5904672206907" r="2" fill="hsl(280, 50%, 30%)" opacity="0.5"/><circle cx="471.8771959042564" cy="345.83664791631566" r="2" fill="hsl(280, 50%, 30%)" opacity="0.5"/><circle cx="472.81152949374524" cy="347.0993272936774" r="2" fill="hsl(280, 50%, 30%)" opacity="0.5"/><circle cx="473.72368398600923" cy="348.3781207284058" r="2" fill="hsl(280, 50%, 30%)" opacity="0.5"/><circle cx="474.6133815299537" cy="349.67263868763274" r="2" fill="hsl(280, 50%, 30%)" opacity="0.5"/><circle cx="475.4803511150882" cy="350.98248684864757" r="2" fill="hsl(280, 50%, 30%)" opacity="0.5"/><circle cx="476.3243286540783" cy="352.30726621901147" r="2" fill="hsl(280, 50%, 30%)" opacity="0.5"/><circle cx="477.1450570631901" cy="353.6465732580951" r="2" fill="hsl(280, 50%, 30%)" opacity="0.5"/><circle cx="477.9422863405995" cy="354.99999999999994" r="2" fill="hsl(280, 50%, 30%)" opacity="0.5"/><circle cx="478.7157736425456" cy="356.36713417782966" r="2" fill="hsl(280, 50%, 30%)" opacity="0.5"/><circle cx="479.4652833573034" cy="357.7475593492698" r="2" fill="hsl(280, 50%, 30%)" opacity="0.5"/><circle cx="480.1905871769531" cy="359.1408550234408" r="2" fill="hsl(280, 50%, 30%)" opacity="0.5"/><circle cx="480.89146416692506" cy="360.54659678898304" r="2" fill="hsl(280, 50%, 30%)" opacity="0.5"/><circle cx="481.5677008332985" cy="361.964356443337" r="2" fill="hsl(280, 50%, 30%)" opacity="0.5"/><circle cx="482.21909118783407" cy="363.393702123178" r="2" fill="hsl(280, 50%, 30%)" opacity="0.5"/><circle cx="482.8454368107196" cy="364.8341984359653" r="2" fill="hsl(280, 50%, 30%)" opacity="0.5"/><circle cx="483.44654691101084" cy="366.2854065925679" r="2" fill="hsl(280, 50%, 30%)" opacity="0.5"/><circle cx="484.0222383847481" cy="367.7468845409229" r="2" fill="hsl(280, 50%, 30%)" opacity="0.5"/><circle cx="484.57233587073176" cy="369.2181871006898" r="2" fill="hsl(280, 50%, 30%)" opacity="0.5"/><circle cx="485.0966718039385" cy="370.69886609885583" r="2" fill="hsl(280, 50%, 30%)" opacity="0.5"/><circle cx="485.5950864665638" cy="372.1884705062547" r="2" fill="hsl(280, 50%, 30%)" opacity="0.5"/><circle cx="486.0674280366732" cy="373.68654657495375" r="2" fill="hsl(280, 50%, 30%)" opacity="0.5"/><circle cx="486.5135526344487" cy="375.19263797647" r="2" fill="hsl(280, 50%, 30%)" opacity="0.5"/><circle cx="486.93332436601617" cy="376.7062859407731" r="2" fill="hsl(280, 50%, 30%)" opacity="0.5"/><circle cx="487.32661536483965" cy="378.2270293960299" r="2" fill="hsl(280, 50%, 30%)" opacity="0.5"/><circle cx="487.6933058306712" cy="379.75440510905213" r="2" fill="hsl(280, 50%, 30%)" opacity="0.5"/><circle cx="488.0332840660425" cy="381.2879478264016" r="2" fill="hsl(280, 50%, 30%)" opacity="0.5"/><circle cx="488.34644651028975" cy="382.82719041611097" r="2" fill="hsl(280, 50%, 30%)" opacity="0.5"/><circle cx="488.6326977710987" cy="384.3716640099762" r="2" fill="hsl(280, 50%, 30%)" opacity="0.5"/><circle cx="488.8919506535624" cy="385.9208981463792" r="2" fill="hsl(280, 50%, 30%)" opacity="0.5"/><circle cx="489.1241261867413" cy="387.4744209135941" r="2" fill="hsl(280, 50%, 30%)" opacity="0.5"/><circle cx="489.32915364771895" cy="389.03175909353666" r="2" fill="hsl(280, 50%, 30%)" opacity="0.5"/><circle cx="489.5069705831446" cy="390.5924383059112" r="2" fill="hsl(280, 50%, 30%)" opacity="0.5"/><circle cx="489.65752282825713" cy="392.15598315271075" r="2" fill="hsl(280, 50%, 30%)" opacity="0.5"/><circle cx="646.8971024393065" cy="382.7352727483291" r="2" fill="hsl(280, 87.5%, 60%)" opacity="0.875"/><circle cx="489.87665812791164" cy="395.289763938135" r="2" fill="hsl(280, 50%, 30%)" opacity="0.5"/><circle cx="489.9451744317186" cy="396.8590452967749" r="2" fill="hsl(280, 50%, 30%)" opacity="0.5"/><circle cx="489.9862925640752" cy="398.4292834206444" r="2" fill="hsl(280, 50%, 30%)" opacity="0.5"/><circle cx="400" cy="400" r="10" fill="#ffffff" opacity="0.8"/><circle cx="400" cy="400" r="5" fill="#000000"/><text x="400" y="780" text-anchor="middle" 
                fill="#00ff00" font-family="monospace" font-size="14">
                TRANSCENDENT: 0.24 symmetry
                </text></svg>